<?xml version="1.0" encoding="UTF-8"?>
<svg id="Layer_1" xmlns="http://www.w3.org/2000/svg" version="1.1" viewBox="0 0 20 20">
  <!-- Generator: Adobe Illustrator 29.2.1, SVG Export Plug-In . SVG Version: 2.1.0 Build 116)  -->
  <defs>
    <style>
      .st0 {
        fill: #fff;
      }
    </style>
  </defs>
  <path class="st0" d="M4.9,7H1.4v11.3h3.5V7Z"/>
  <path class="st0" d="M3.1,1.7c-1.3,0-2.2.8-2.2,2s.8,2,2.1,2h0c1.3,0,2.2-.9,2.2-2,0-1.1-.8-2-2.1-2Z"/>
  <path class="st0" d="M14.6,6.9c-2,0-3.3,1.1-3.5,1.9v-1.8h-4c0,.9,0,11.3,0,11.3h4v-6.1c0-.3,0-.7,0-.9.3-.7.9-1.4,1.9-1.4s2,1,2,2.6v5.8h4v-6.3c0-3.5-2-5.1-4.5-5.1Z"/>
</svg>