<?xml version="1.0" encoding="UTF-8"?>
<svg id="Layer_1" xmlns="http://www.w3.org/2000/svg" version="1.1" viewBox="0 0 20 20">
  <!-- Generator: Adobe Illustrator 29.2.1, SVG Export Plug-In . SVG Version: 2.1.0 Build 116)  -->
  <defs>
    <style>
      .st0 {
        fill: #fff;
      }
    </style>
  </defs>
  <path class="st0" d="M17.9,5.9c0,.2,0,.4,0,.5,0,5.4-4.1,11.7-11.7,11.7S1.8,17.4,0,16.3c.3,0,.6,0,1,0,1.9,0,3.7-.7,5.1-1.8-1.8,0-3.3-1.2-3.8-2.8.3,0,.5,0,.8,0s.7,0,1.1-.1c-1.9-.4-3.3-2-3.3-4s0,0,0,0c.6.3,1.2.5,1.9.5-1.1-.7-1.8-2-1.8-3.4s.2-1.5.6-2.1c2,2.5,5,4.1,8.4,4.3,0-.3-.1-.6-.1-.9,0-2.3,1.8-4.1,4.1-4.1s2.2.5,3,1.3c.9-.2,1.8-.5,2.6-1-.3,1-1,1.8-1.8,2.3.8,0,1.6-.3,2.4-.6-.5.8-1.2,1.5-2,2.1Z"/>
</svg>